<?xml version="1.0" encoding="utf-8"?>
<!-- Generator: Adobe Illustrator 16.0.2, SVG Export Plug-In . SVG Version: 6.00 Build 0)  -->
<!DOCTYPE svg PUBLIC "-//W3C//DTD SVG 1.1//EN" "http://www.w3.org/Graphics/SVG/1.1/DTD/svg11.dtd">
<svg version="1.1" id="Слой_1" xmlns="http://www.w3.org/2000/svg" xmlns:xlink="http://www.w3.org/1999/xlink" x="0px" y="0px"
	 width="47.946px" height="90.71px" viewBox="0 0 47.946 90.71" enable-background="new 0 0 47.946 90.71" xml:space="preserve">
<path fill="#333333" d="M8.756,89.207c0.303-1.057,0.846-1.909,1.527-2.82c0.646-0.86,1.502-1.699,1.881-2.582
	c0.725-1.699,0.373-3.769,0-5.521c1.557,1.178,3.594,2.248,5.637,2.35c1.625,0.081,6.93-0.918,6.93-6.342
	c0-3.916-4.803-4.895-4.109-10.688c-1.551,1.385-1.645,4.796-0.47,6.577c-4.14,1.113-3.568,4.496-2.938,4.814
	c0.451-0.551,0.823-0.855,1.411-0.939c1.237-0.174,2.437,0.797,2.467,2.115c0.054,2.381-2.614,3.186-4.464,3.053
	c-2.962-0.209-6.439-3.332-7.166-6.577c-0.393-1.759-0.295-3.591,0.236-5.286c2.759,0.283,4.584-1.055,5.754-2.817
	c1.549-2.329,1.828-5.677,1.164-8.829c2.142-2.387,3.986-4.18,6.015-5.873c1.948,2.184,3.193,6.475,0.457,7.301
	c-1.078,0.326-1.781-0.164-2.114-0.588c-1.504,2.572,0.975,5.103,3.57,4.595c-1.248,4.048-0.22,8.188,3.461,9.319
	c-1.406-1.865-0.254-3.992,0.275-4.771c2.417-3.549,4.394-3.644,5.995-6.638c0.536,1.176,2.387,6.24,7.254,4.19
	c-2.463-0.304-3.503-0.922-4.287-2.906c-0.344-0.875-0.704-2.127-0.881-3.084c-0.465-2.482-0.986-4.654-2.82-7.438
	c1.057,0.461,2.534,1.377,4.464,1.684c2.353,0.375,5.694-0.643,5.694-2.381c0-0.697-0.716-1.184-0.674-1.613
	c0-0.719,2.566-0.396,4.922-2.156c-2.355-1.759-4.922-1.437-4.922-2.156c-0.042-0.43,0.674-0.913,0.674-1.611
	c0-1.737-3.342-2.758-5.694-2.382c-1.93,0.308-3.407,1.224-4.464,1.684c1.834-2.783,2.355-4.955,2.82-7.438
	c0.177-0.956,0.537-2.211,0.881-3.085c0.784-1.982,1.824-2.602,4.287-2.906c-4.867-2.048-6.718,3.016-7.254,4.191
	c-1.602-2.994-3.578-3.09-5.995-6.637c-0.529-0.779-1.682-2.906-0.275-4.773c-3.681,1.133-4.709,5.272-3.461,9.321
	c-2.596-0.509-5.074,2.021-3.57,4.593c0.333-0.424,1.036-0.913,2.114-0.589c2.736,0.827,1.491,5.121-0.457,7.302
	c-2.028-1.692-3.873-3.487-6.015-5.872c0.664-3.152,0.385-6.5-1.164-8.829c-1.17-1.764-2.995-3.101-5.754-2.818
	c-0.531-1.695-0.629-3.526-0.236-5.285c0.727-3.245,4.204-6.367,7.166-6.577c1.85-0.133,4.518,0.672,4.464,3.053
	c-0.03,1.317-1.229,2.289-2.467,2.115c-0.588-0.083-0.96-0.389-1.411-0.94c-0.63,0.319-1.201,3.703,2.938,4.815
	c-1.175,1.782-1.081,5.192,0.47,6.579c-0.693-5.795,4.109-6.775,4.109-10.689c0-5.424-5.305-6.424-6.93-6.344
	c-2.043,0.103-4.08,1.175-5.637,2.351c0.373-1.753,0.725-3.822,0-5.521c-0.379-0.883-1.234-1.723-1.881-2.584
	C9.602,3.41,9.059,2.558,8.756,1.501c-0.238-0.86,0.238-1.502-0.26-1.502c-0.131,0-0.181,0.086-0.221,0.146
	C7.307,1.649,9.21,4.644,9.461,5.377c1.475,4.311-2.012,5.564-1.291,7.518c0.27,0.73,1.757,0.924,1.527,1.291
	c-0.168,0.367-1.663,0.346-1.646,1.527c0.012,0.715,1.141,0.832,0.943,1.53c-0.557,1.948-0.658,3.864-0.006,6.23
	c-1.672,0.571-2.813,1.548-3.638,2.811c-0.808-0.752-2.444-1.196-3.173-0.234c-0.236,0.554,1.586,0.324,1.723,1.625
	c0.322,2.247-1.713,2.937-1.369,5.187c0.143,0.939,1.675,2.337,3.326,1.634c1.699,2.951,4.437,5.215,4.437,5.215
	c-1.591,0.275-2.774-0.82-3.063-0.741c-0.75,0.409-0.309,1.506-0.729,1.796c-0.947,0.53-2.205-0.312-2.049,0.308
	c0.702,2.182,2.307,1.039,2.307,2.007c0,0.521-1.5,1.067-2.34,1.356C3.128,44.882,1.729,45.182,0,45.354
	c1.729,0.172,3.128,0.472,4.42,0.918c0.84,0.29,2.34,0.835,2.34,1.354c0,0.97-1.604-0.172-2.307,2.011
	c-0.156,0.618,1.102-0.224,2.049,0.306c0.42,0.291-0.021,1.387,0.729,1.795c0.289,0.08,1.473-1.016,3.063-0.74
	c0,0-2.737,2.264-4.437,5.215c-1.651-0.703-3.184,0.697-3.326,1.634c-0.344,2.252,1.691,2.939,1.369,5.187
	c-0.137,1.301-1.959,1.07-1.723,1.627c0.729,0.959,2.365,0.516,3.173-0.236c0.825,1.262,1.966,2.24,3.638,2.811
	c-0.652,2.365-0.551,4.281,0.006,6.23c0.197,0.697-0.932,0.814-0.943,1.529c-0.017,1.182,1.479,1.162,1.646,1.527
	c0.229,0.369-1.258,0.561-1.527,1.291c-0.721,1.953,2.766,3.207,1.291,7.518c-0.251,0.734-2.154,3.729-1.186,5.232
	c0.04,0.059,0.09,0.146,0.221,0.146C8.994,90.709,8.518,90.068,8.756,89.207z M32.484,54.087c1.179,8.09-5.611,8.61-5.887,14.85
	c-1.194-1.069-1.56-2.604-1.514-3.927c0.085-2.443,1.774-4.764,1.996-7.398c0.318-3.756-1.482-6.455-3.48-8.557
	c1.315-1.1,2.63-2.295,4.297-3.334C30.122,47.759,31.971,50.568,32.484,54.087z M23.02,48.566c-1.287-1.255-2.447-2.204-3.619-3.213
	c1.172-1.008,2.332-1.957,3.619-3.212c1.407,1.205,2.936,2.412,4.1,3.212C25.955,46.152,24.427,47.361,23.02,48.566z M40.471,44.256
	c0.217,0.336,0.31,0.72,0.307,1.098c0.003,0.379-0.09,0.764-0.307,1.1c-0.899,1.391-3.828,1.625-5.639,1.41
	c-0.915-0.111-4.649-1.079-5.803-2.51c1.153-1.429,4.888-2.398,5.803-2.509C36.643,42.629,39.571,42.863,40.471,44.256z
	 M27.08,33.097c-0.222-2.634-1.911-4.955-1.996-7.399c-0.046-1.323,0.319-2.855,1.514-3.926c0.275,6.239,7.065,6.76,5.887,14.85
	c-0.514,3.519-2.362,6.329-4.588,8.366c-1.667-1.04-2.981-2.232-4.297-3.335C25.598,39.553,27.398,36.851,27.08,33.097z
	 M14.361,32.659c-2.049-2.355-3.376-4.603-4.252-7.799C14.943,23.056,18.032,30.396,14.361,32.659z M6.408,29.455
	c0.262-1.882,1.557-3.597,3.09-4.365c0.552,1.881,1.529,4.909,4.189,7.784c-0.61,0.215-1.582-0.207-1.767-0.189
	c-1.298-0.025-1.451,3.506,0.767,4.154c0.545,0.158,2.033-0.08,1.75,0.471c-0.267,0.549-0.565,0.856-0.982,1.19
	c-0.598,0.479-1.598,1.008-2.348,1.057C8.646,37.459,5.824,33.661,6.408,29.455z M12.862,40.826c1.866-1.713,2.589-2.57,3.507-4.955
	c0,0,4.355,4.496,5.772,5.608c0,0-1.325,1.671-3.321,3.469C16.717,43.366,14.239,41.683,12.862,40.826z M3.748,45.354
	c2.568-0.704,4.711-1.375,8.532-4.036c2.021,1.313,4.069,2.606,5.904,4.035c-1.835,1.431-3.884,2.723-5.904,4.036
	C8.459,46.73,6.316,46.057,3.748,45.354z M12.862,49.881c1.377-0.855,3.854-2.539,5.958-4.121c1.996,1.797,3.321,3.469,3.321,3.469
	c-1.417,1.111-5.772,5.608-5.772,5.608C15.451,52.451,14.729,51.594,12.862,49.881z M6.408,61.253
	c-0.584-4.206,2.238-8.004,4.699-10.103c0.75,0.05,1.75,0.578,2.348,1.058c0.417,0.334,0.716,0.64,0.982,1.19
	c0.283,0.551-1.205,0.311-1.75,0.471c-2.218,0.648-2.064,4.18-0.767,4.154c0.185,0.018,1.156-0.403,1.767-0.189
	c-2.66,2.875-3.638,5.903-4.189,7.784C7.965,64.85,6.67,63.133,6.408,61.253z M10.109,65.848c0.876-3.195,2.203-5.443,4.252-7.801
	C18.032,60.313,14.943,67.652,10.109,65.848z"/>
</svg>
