<?xml version="1.0" encoding="utf-8"?>
<!-- Generator: Adobe Illustrator 16.0.2, SVG Export Plug-In . SVG Version: 6.00 Build 0)  -->
<!DOCTYPE svg PUBLIC "-//W3C//DTD SVG 1.1//EN" "http://www.w3.org/Graphics/SVG/1.1/DTD/svg11.dtd">
<svg version="1.1" id="Слой_1" xmlns="http://www.w3.org/2000/svg" xmlns:xlink="http://www.w3.org/1999/xlink" x="0px" y="0px"
	 width="72.722px" height="550.001px" viewBox="0 0 72.722 550.001" enable-background="new 0 0 72.722 550.001"
	 xml:space="preserve">
<g>
	<path fill="#333333" d="M19.719,118.256c0.271-0.43,0.574-0.836,0.9-1.227c1.28-1.541,2.875-2.823,4.203-4.545
		c0.662-0.848,1.269-1.794,1.713-2.874c0.445-1.071,0.689-2.299,0.672-3.521c-0.045-2.459-0.935-4.633-1.832-6.598l-0.002-0.003
		l-1.719-3.259l-0.892,3.621c-0.219,0.901-0.428,1.611-0.758,2.142c-2.46,3.313-4.444,7.298-5.011,11.692
		c-0.608,4.425,0.263,8.885,1.762,12.832c1.507,3.907,3.389,7.672,5.809,11.069l0.708,0.961c-0.872-0.265-1.767-0.481-2.676-0.632
		c-3.422-0.605-7.221-0.238-10.461,1.643c-3.27,1.844-5.617,5.022-7.134,8.329c-0.817,1.687-1.346,3.722-1.439,5.669
		c-0.107,1.971,0.152,3.91,0.636,5.725c0.99,3.646,2.762,6.85,4.903,9.691c0.54,0.712,1.11,1.393,1.718,2.059
		c0.597,0.648,1.337,1.344,2.065,1.885c1.479,1.121,3.134,1.963,4.89,2.472c1.751,0.509,3.61,0.694,5.472,0.419
		c1.865-0.293,3.686-1.012,5.265-2.484c1.563-1.493,2.414-3.684,2.523-5.779c0.118-2.109-0.384-4.207-1.467-5.987
		c-1.069-1.776-2.899-3.216-4.964-3.552c-0.508-0.092-1.02-0.122-1.521-0.1l-0.376,0.021l-0.354,0.041
		c-0.216,0.027-0.551,0.096-0.788,0.16l-0.09,0.026c-0.414,0.11-0.828,0.257-1.218,0.497c-2.216,1.363-2.978,4.392-1.707,6.763
		c1.273,2.374,4.104,3.188,6.32,1.826c1.208-0.745,1.966-1.985,2.216-3.343c0.502,1.033,0.749,2.244,0.661,3.398
		c-0.095,1.334-0.618,2.545-1.481,3.348c-0.104,0.103-0.234,0.206-0.317,0.271l-0.22,0.159l-0.064,0.043
		c0.051-0.033-0.015,0.01-0.019,0.012l-0.102,0.063c-0.271,0.177-0.563,0.32-0.859,0.453c-0.6,0.258-1.242,0.436-1.91,0.533
		c-1.329,0.197-2.746,0.065-4.099-0.334c-1.356-0.395-2.651-1.057-3.797-1.929c-0.592-0.448-1.067-0.894-1.603-1.472
		c-0.52-0.566-1.021-1.172-1.496-1.799c-1.895-2.515-3.448-5.383-4.247-8.37c-0.806-3.007-0.727-6.062,0.591-8.731
		c1.309-2.846,3.213-5.282,5.66-6.724c2.441-1.458,5.395-1.834,8.31-1.368c2.926,0.459,5.811,1.662,8.502,3.246
		c5.395,3.2,10.092,7.845,13.988,13.089c0.975,1.317,1.899,2.677,2.768,4.073c0.44,0.706,0.852,1.404,1.268,2.127
		c0.394,0.685,0.726,1.376,1.031,2.111c1.2,2.953,1.907,6.234,2.364,9.554c0.464,3.321,0.692,6.714,0.742,10.116
		c0.032,3.405-0.059,6.825-0.592,10.246c1.287-3.206,1.907-6.688,2.279-10.158c0.356-3.481,0.401-7.008,0.113-10.529
		c-0.128-1.766-0.407-3.523-0.752-5.273c-0.354-1.748-0.832-3.489-1.517-5.186c-0.339-0.841-0.736-1.693-1.181-2.48
		c-0.413-0.748-0.856-1.514-1.303-2.25c-0.897-1.484-1.853-2.923-2.862-4.324c-4.006-5.518-8.829-10.447-14.6-14.018
		c-2.067-1.742-3.903-3.787-5.515-6.053c-2.234-3.143-4.011-6.682-5.433-10.361C20.522,123.07,19.915,120.664,19.719,118.256z
		 M19.814,114.117c0.483-3.756,2.199-7.258,4.484-10.318l0.037-0.052l0.013-0.02c0.353,0.827,0.617,1.665,0.726,2.512
		c0.26,1.786-0.357,3.646-1.396,5.341c-1.01,1.703-2.455,3.193-3.62,4.977l-0.399,0.646
		C19.631,116.169,19.671,115.139,19.814,114.117z"/>
	<path fill="#333333" d="M55.251,164.746c4.915-2.144,11.357-16.924,4.28-16.092C54.557,149.451,53.597,161.236,55.251,164.746z"/>
	<path fill="#333333" d="M40.698,184.506c4.067-0.738,5.537,0,7.997,3.265c0.423-2.273-1.034-5.649-3.214-7.079
		c-4.176-2.963-8.176-0.409-13.547-0.72C30.913,186.384,37.719,185.086,40.698,184.506z"/>
	<path fill="#333333" d="M38.559,202.277c-1.418-3.982-3.621-7.884-6.885-10.674c-3.21-2.801-7.201-4.272-11.111-4.901
		c-0.576-0.146-1.182-0.513-1.917-1.013l-2.957-1.998l0.818,3.638v0.002c0.593,2.098,1.328,4.333,2.862,6.164
		c0.761,0.907,1.722,1.624,2.731,2.087c1.015,0.467,2.059,0.716,3.084,0.855c2.066,0.292,4.049,0.063,5.968,0.258
		c0.485,0.045,0.968,0.119,1.439,0.239c1.391,1.907,2.48,4.11,3.309,6.437c1.305,3.729,2.259,7.618,2.625,11.547
		c0.26,2.832,0.221,5.664-0.185,8.453c-1.946,6.818-2.333,13.947-1.751,20.904c0.15,1.764,0.369,3.514,0.658,5.252
		c0.142,0.865,0.305,1.75,0.479,2.6c0.176,0.9,0.428,1.815,0.719,2.678c0.579,1.738,1.335,3.361,2.191,4.901
		c0.86,1.53,1.779,3.019,2.806,4.405c2.034,2.787,4.309,5.332,6.788,7.619c1.27,1.158,2.589,2.271,3.974,3.272
		c-1.385,1.001-2.704,2.114-3.974,3.271c-2.479,2.288-4.754,4.832-6.788,7.619c-1.026,1.388-1.945,2.875-2.806,4.406
		c-0.855,1.539-1.612,3.162-2.191,4.9c-0.291,0.863-0.543,1.778-0.719,2.678c-0.174,0.851-0.337,1.734-0.479,2.601
		c-0.289,1.738-0.508,3.487-0.658,5.252c-0.582,6.956-0.195,14.086,1.751,20.904c0.405,2.79,0.444,5.621,0.185,8.452
		c-0.366,3.93-1.32,7.818-2.625,11.548c-0.829,2.326-1.918,4.528-3.309,6.437c-0.472,0.12-0.954,0.194-1.439,0.239
		c-1.919,0.195-3.901-0.034-5.968,0.257c-1.025,0.141-2.069,0.389-3.084,0.856c-1.01,0.463-1.971,1.179-2.731,2.086
		c-1.534,1.831-2.27,4.067-2.862,6.164v0.002l-0.818,3.638l2.957-1.997c0.735-0.5,1.341-0.867,1.917-1.014
		c3.91-0.629,7.901-2.1,11.111-4.9c3.264-2.79,5.467-6.692,6.885-10.674c1.386-3.959,2.404-8.087,2.795-12.34l0.095-1.216
		c0.473,0.827,0.99,1.637,1.556,2.416c2.12,2.936,5.135,5.435,8.703,6.427c3.563,1.038,7.307,0.426,10.523-0.894
		c1.673-0.639,3.354-1.739,4.662-3.093c1.335-1.365,2.38-2.974,3.183-4.655c1.599-3.393,2.34-7.029,2.579-10.668
		c0.061-0.914,0.078-1.83,0.056-2.76c-0.022-0.908-0.12-1.958-0.309-2.885c-0.368-1.903-1.042-3.726-2.003-5.377
		c-0.958-1.652-2.201-3.14-3.739-4.297c-1.55-1.149-3.339-1.951-5.433-2.022c-2.094-0.052-4.113,0.934-5.53,2.386
		c-1.427,1.46-2.396,3.355-2.737,5.451c-0.349,2.079,0.073,4.468,1.37,6.219c0.313,0.438,0.669,0.834,1.049,1.184
		c0.093,0.093,0.19,0.173,0.291,0.258l0.283,0.229c0.176,0.136,0.465,0.331,0.679,0.457l0.088,0.047
		c0.368,0.224,0.766,0.415,1.202,0.523c2.492,0.619,4.978-1.039,5.557-3.704c0.578-2.666-0.969-5.324-3.463-5.945
		c-1.355-0.338-2.699,0.018-3.752,0.831c0.294-1.122,0.886-2.19,1.685-2.972c0.921-0.907,2.072-1.409,3.217-1.368
		c0.139,0.001,0.298,0.021,0.403,0.033c0.04,0.001,0.17,0.029,0.26,0.046l0.078,0.013c-0.062-0.013,0.017,0.007,0.019,0.007
		l0.115,0.029c0.311,0.064,0.614,0.172,0.918,0.295c0.604,0.249,1.184,0.586,1.735,1.005c1.101,0.826,2.052,1.957,2.787,3.231
		c0.741,1.279,1.268,2.707,1.552,4.182c0.146,0.76,0.211,1.433,0.233,2.246c0.021,0.794,0.001,1.604-0.053,2.412
		c-0.21,3.219-0.903,6.447-2.222,9.22c-1.325,2.786-3.326,4.966-5.989,5.956c-2.772,1.133-5.719,1.523-8.425,0.792
		c-2.718-0.712-5.116-2.594-6.95-5.064c-1.851-2.468-3.194-5.453-4.157-8.574c-1.909-6.278-2.389-13.104-1.898-19.783
		c0.126-1.675,0.313-3.343,0.569-5.002c0.128-0.836,0.27-1.646,0.427-2.482c0.147-0.786,0.345-1.532,0.591-2.294
		c1.002-3.034,2.572-5.954,4.351-8.714c1.779-2.77,3.771-5.42,5.9-7.946c1.344-1.575,2.738-3.109,4.215-4.564
		c-1.477-1.455-2.871-2.99-4.215-4.565c-2.129-2.526-4.121-5.176-5.9-7.946c-1.778-2.759-3.349-5.679-4.351-8.712
		c-0.246-0.764-0.443-1.509-0.591-2.295c-0.157-0.836-0.299-1.646-0.427-2.482c-0.256-1.66-0.443-3.327-0.569-5.002
		c-0.491-6.681-0.011-13.506,1.898-19.783c0.963-3.121,2.307-6.107,4.157-8.574c1.834-2.471,4.232-4.353,6.95-5.064
		c2.706-0.731,5.652-0.341,8.425,0.791c2.663,0.99,4.664,3.17,5.989,5.957c1.318,2.772,2.012,6.001,2.222,9.219
		c0.054,0.809,0.073,1.618,0.053,2.412c-0.022,0.814-0.088,1.486-0.233,2.247c-0.284,1.474-0.811,2.901-1.552,4.181
		c-0.735,1.275-1.687,2.406-2.787,3.232c-0.552,0.419-1.131,0.756-1.735,1.004c-0.304,0.123-0.607,0.231-0.918,0.295l-0.115,0.029
		c-0.002,0-0.08,0.021-0.019,0.008l-0.078,0.013c-0.09,0.017-0.22,0.044-0.26,0.046c-0.105,0.012-0.265,0.031-0.403,0.033
		c-1.145,0.041-2.296-0.461-3.217-1.369c-0.799-0.781-1.391-1.85-1.685-2.971c1.053,0.813,2.396,1.168,3.752,0.83
		c2.494-0.62,4.041-3.278,3.463-5.944c-0.579-2.665-3.064-4.323-5.557-3.704c-0.437,0.108-0.834,0.299-1.202,0.523l-0.088,0.047
		c-0.214,0.125-0.503,0.32-0.679,0.456l-0.283,0.229c-0.101,0.086-0.198,0.166-0.291,0.258c-0.38,0.35-0.735,0.746-1.049,1.184
		c-1.297,1.752-1.719,4.14-1.37,6.219c0.342,2.096,1.311,3.992,2.737,5.451c1.417,1.453,3.437,2.438,5.53,2.387
		c2.094-0.07,3.883-0.873,5.433-2.022c1.538-1.157,2.781-2.646,3.739-4.297c0.961-1.651,1.635-3.474,2.003-5.377
		c0.188-0.928,0.286-1.978,0.309-2.886c0.022-0.929,0.005-1.846-0.056-2.76c-0.239-3.639-0.98-7.275-2.579-10.668
		c-0.803-1.681-1.848-3.289-3.183-4.654c-1.308-1.354-2.989-2.454-4.662-3.093c-3.217-1.319-6.96-1.933-10.523-0.894
		c-3.568,0.991-6.583,3.49-8.703,6.426c-0.565,0.779-1.083,1.59-1.556,2.417l-0.095-1.216
		C40.963,210.363,39.945,206.236,38.559,202.277z M31.263,195.939c-1.987-0.455-3.995-0.49-5.82-1
		c-1.838-0.479-3.473-1.396-4.42-2.889c-0.464-0.703-0.803-1.508-1.068-2.367l0.019,0.004l0.064,0.008
		c3.618,0.575,7.106,1.885,9.851,4.281c0.756,0.646,1.44,1.37,2.077,2.147C31.729,196.056,31.498,195.994,31.263,195.939z
		 M29.888,356.027c-2.744,2.396-6.232,3.706-9.851,4.281l-0.064,0.009l-0.019,0.004c0.266-0.86,0.604-1.664,1.068-2.368
		c0.947-1.492,2.582-2.41,4.42-2.889c1.825-0.509,3.833-0.545,5.82-0.999c0.235-0.056,0.467-0.116,0.702-0.186
		C31.328,354.658,30.644,355.381,29.888,356.027z"/>
	<path fill="#333333" d="M22.818,248.225c-5.705,4.555,8.42,10.67,13.383,8.653C35.174,253.102,26.967,245.178,22.818,248.225z"/>
	<path fill="#333333" d="M53.504,261.418c-0.684,2.629,0.396,6.17,2.152,7.523c-0.276-4.186,0.328-5.796,3.775-8.222
		c2.549-1.752,8.355-5.767,3.524-9.712C59.224,255.153,54.67,256.201,53.504,261.418z"/>
	<path fill="#333333" d="M18.627,0.925c-0.255,0.11-0.499,0.206-0.8,0.354c-0.585,0.267-1.101,0.555-1.637,0.877
		c-2.104,1.295-3.995,3.176-5.237,5.519c-1.261,2.333-1.842,5.046-1.781,7.679c0.016,0.658,0.061,1.316,0.148,1.964
		c0.041,0.337,0.093,0.619,0.152,0.995l0.184,0.891c0.283,1.271,0.651,2.439,1.082,3.603c0.855,2.313,1.939,4.474,3.13,6.542
		c2.393,4.127,5.245,7.845,8.29,11.33c2.428,2.785,5.021,5.389,7.715,7.856c-1.839-0.46-3.717-0.765-5.616-0.878
		c-4.634-0.272-9.487,0.635-13.657,3.214c-4.189,2.532-7.392,6.767-9.14,11.432c-0.435,1.165-0.828,2.323-1.114,3.644
		C0.07,67.256-0.037,68.598,0.01,69.92c0.093,2.65,0.771,5.216,1.854,7.53c2.15,4.599,5.991,8.432,10.83,9.82
		c1.196,0.342,2.443,0.521,3.688,0.522c1.151-0.002,2.408-0.093,3.601-0.354c2.389-0.49,4.929-1.721,6.592-4.055
		c1.682-2.313,2.186-5.443,1.466-8.207c-0.715-2.705-2.36-5.098-4.853-6.418c-0.978-0.508-2.181-0.787-3.381-0.633
		c-0.639,0.019-1.284,0.176-1.887,0.518c-2.13,1.199-2.94,4.016-1.819,6.291c1.118,2.275,3.749,3.15,5.879,1.949
		c1.075-0.605,1.812-1.629,2.135-2.783c0.364,0.615,0.649,1.295,0.812,1.988c0.435,1.77,0.093,3.74-0.956,5.138
		c-1.032,1.423-2.739,2.313-4.627,2.683c-0.959,0.191-1.905,0.258-2.945,0.249c-0.945-0.016-1.892-0.159-2.81-0.431
		c-3.683-1.096-6.841-4.199-8.591-7.955c-0.878-1.881-1.409-3.943-1.477-5.987c-0.034-1.023,0.05-2.041,0.255-3.017
		c0.211-0.973,0.564-2.031,0.946-3.033c1.523-4.033,4.166-7.479,7.641-9.582c3.46-2.138,7.605-2.945,11.702-2.697
		c4.105,0.244,8.19,1.488,11.936,3.442c3.743,1.968,7.196,4.609,10.087,7.835c2.882,3.271,5.45,6.987,7.473,10.944
		c2.556,4.95,4.225,10.426,4.798,16.021c-1.294-3.19-3.051-6.177-5.385-8.704c-1.383-1.479-2.979-2.791-4.807-3.728
		c-1.82-0.932-3.888-1.474-5.959-1.386c-2.066,0.062-4.079,0.708-5.849,1.688c-0.907,0.508-1.688,1.019-2.551,1.718
		c-0.827,0.702-1.542,1.522-2.149,2.415c-2.414,3.602-3.158,8.156-2.311,12.406c0.439,2.121,1.339,4.202,2.771,5.879
		c1.424,1.679,3.381,2.854,5.415,3.326c4.146,1.068,8.835-0.934,10.957-5.076c0.522-1.025,0.859-2.163,0.993-3.315
		c0.02-0.142,0.025-0.29,0.037-0.433l0.017-0.255l0.01-0.181c0.003-0.326-0.011-0.666-0.041-0.94
		c-0.058-0.584-0.162-1.122-0.268-1.622c-0.215-1.006-0.454-1.906-0.522-2.678c-0.068-0.785,0.036-1.285,0.336-1.703l1.734-2.432
		l-2.843-0.021l-0.003-0.002c-0.635,0.019-1.296,0.059-1.998,0.209c-0.696,0.151-1.47,0.414-2.166,0.991
		c-0.7,0.562-1.171,1.412-1.395,2.185c-0.232,0.76-0.292,1.554-0.312,2.181c-0.115,2.405-0.379,4.877-1.304,6.897
		c-0.483,1.002-1.099,1.795-2.042,2.176c-0.847,0.371-1.849,0.408-2.79,0.111c-0.634-0.4-1.214-0.892-1.715-1.475
		c-1.042-1.217-1.74-2.797-2.089-4.484c-0.695-3.377-0.046-7.189,1.831-9.947c0.463-0.689,1.012-1.313,1.617-1.822
		c0.592-0.477,1.37-1.001,2.083-1.396c1.467-0.813,3.045-1.306,4.636-1.358c3.195-0.138,6.29,1.646,8.658,4.225
		c2.394,2.58,4.195,5.871,5.39,9.347c1.039,3.093,1.651,6.385,1.423,9.575c-0.73,3.636-1.935,7.182-3.666,10.357
		c-2.1,3.816-4.995,7.294-8.605,9.004c-1.795,0.845-3.742,1.164-5.655,0.875c-0.476-0.066-0.959-0.18-1.413-0.311
		c-0.179-0.049-0.545-0.176-0.689-0.229c-0.175-0.068-0.356-0.157-0.534-0.264c-0.731-0.427-1.432-1.124-2.051-1.91
		c-1.229-1.591-2.166-3.564-2.577-5.65c-0.433-2.08-0.236-4.351,1.049-6.35c-0.957,0.632-1.756,1.621-2.242,2.79
		c-0.514,1.163-0.691,2.474-0.695,3.761c0.05,2.589,0.886,5.1,2.315,7.232c0.729,1.061,1.618,2.043,2.801,2.781
		c0.297,0.18,0.61,0.341,0.95,0.478c0.374,0.141,0.53,0.193,0.881,0.301c0.605,0.187,1.19,0.319,1.805,0.415
		c2.43,0.393,4.987-0.018,7.208-1.053c2.234-1.023,4.168-2.58,5.817-4.348c1.652-1.771,3.044-3.773,4.222-5.886
		c2.352-4.254,3.824-8.95,4.565-13.774c0.731-4.83,0.649-9.791-0.182-14.596c-0.83-4.805-2.402-9.443-4.549-13.732
		c-2.153-4.297-4.806-8.223-7.908-11.809c-2.452-2.768-5.263-5.176-8.329-7.119c-5.636-4.395-10.887-9.404-15.611-14.863
		c-2.905-3.381-5.6-6.969-7.844-10.797c-2.195-3.816-4.04-7.993-4.234-12.115c-0.064-2.045,0.357-4.07,1.269-5.815
		c0.909-1.748,2.307-3.2,3.977-4.261c0.415-0.26,0.866-0.523,1.284-0.725c0.194-0.107,0.458-0.221,0.713-0.334
		c0.199-0.092,0.435-0.184,0.653-0.264c0.893-0.322,1.814-0.491,2.733-0.502c1.835-0.031,3.665,0.653,5.145,1.884
		c1.474,1.22,2.619,2.999,2.966,4.843c0.388,1.861-0.199,3.564-1.694,4.615c-0.809,0.556-1.453,0.832-2.294,0.713
		c-0.824-0.106-1.68-0.602-2.362-1.289c-0.675-0.699-1.208-1.625-1.266-2.629c-0.086-1.013,0.483-2.062,1.385-2.758
		c-0.515,0.193-1.04,0.479-1.458,0.941c-0.413,0.451-0.729,1.068-0.829,1.742c-0.218,1.352,0.242,2.719,0.975,3.791
		c0.73,1.084,1.791,1.964,3.108,2.363c0.659,0.195,1.387,0.27,2.102,0.119c0.757-0.165,1.264-0.42,1.872-0.754
		c1.146-0.642,2.22-1.727,2.783-3.113c0.582-1.374,0.681-2.899,0.467-4.279c-0.463-2.787-1.964-5.109-3.889-6.805
		c-1.938-1.697-4.445-2.719-6.996-2.742c-1.269-0.014-2.535,0.193-3.724,0.592C19.212,0.694,18.937,0.799,18.627,0.925z
		 M42.317,98.049c1.314-2.428,1.738-5.061,2.058-7.623c0.104-1.196,0.424-2.04,0.93-2.346c0.149-0.107,0.355-0.183,0.587-0.242
		c-0.04,0.441-0.046,0.869-0.011,1.27c0.112,1.178,0.395,2.165,0.58,3.064c0.098,0.448,0.177,0.872,0.214,1.26
		c0.021,0.211,0.025,0.361,0.026,0.521l-0.007,0.183l-0.009,0.114c-0.01,0.101-0.011,0.201-0.029,0.297
		c-0.092,0.787-0.319,1.545-0.667,2.235c-1.132,2.28-3.614,3.702-6.088,3.746c0.409-0.212,0.82-0.489,1.146-0.81
		C41.567,99.227,41.972,98.646,42.317,98.049z"/>
	<path fill="#333333" d="M64.084,90.416c4.982-3.532,10.853-13.1,7.249-15.412C66.233,71.941,62.918,84.148,64.084,90.416z"/>
	<path fill="#333333" d="M44.66,51.293c-0.096-0.192-1.12-1.34-1.217-1.535c-1.739-4.934,3.462-4.661,4.951-7.719
		c2.284-4.248-2.366-9.018-6.143-6.395C36.057,40.37,40.037,47.982,44.66,51.293z"/>
	<path fill="#333333" d="M48.336,73.271c0.864-2.491-0.3-4.801-1.565-6.138c-2.009-2.123-5.947-4.521-8.659-2.558
		c-0.33,0.24-0.596,0.536-0.803,0.865c-0.814,1.32-0.61,3.172,0.612,4.125C41.275,72.189,46.019,68.113,48.336,73.271z"/>
	<path fill="#333333" d="M52.015,374.354c-0.457,3.32-1.164,6.601-2.364,9.554c-0.306,0.735-0.638,1.427-1.031,2.111
		c-0.416,0.723-0.827,1.421-1.268,2.127c-0.868,1.397-1.793,2.757-2.768,4.073c-3.896,5.244-8.593,9.889-13.988,13.089
		c-2.691,1.584-5.576,2.788-8.502,3.246c-2.915,0.467-5.868,0.091-8.31-1.368c-2.447-1.441-4.352-3.878-5.66-6.724
		c-1.317-2.67-1.396-5.725-0.591-8.731c0.799-2.987,2.353-5.854,4.247-8.37c0.476-0.626,0.977-1.231,1.496-1.798
		c0.535-0.579,1.011-1.024,1.603-1.473c1.146-0.871,2.44-1.534,3.797-1.928c1.353-0.399,2.77-0.532,4.099-0.335
		c0.668,0.099,1.311,0.275,1.91,0.533c0.297,0.133,0.589,0.276,0.859,0.454l0.102,0.062c0.004,0.003,0.069,0.045,0.019,0.012
		l0.064,0.044l0.22,0.158c0.083,0.064,0.213,0.168,0.317,0.271c0.863,0.803,1.387,2.014,1.481,3.348
		c0.088,1.154-0.159,2.365-0.661,3.399c-0.25-1.358-1.008-2.599-2.216-3.344c-2.217-1.362-5.047-0.547-6.32,1.827
		c-1.271,2.37-0.509,5.398,1.707,6.763c0.39,0.239,0.804,0.387,1.218,0.496l0.09,0.026c0.237,0.065,0.572,0.133,0.788,0.16
		l0.354,0.042l0.376,0.021c0.501,0.022,1.013-0.008,1.521-0.099c2.064-0.337,3.895-1.775,4.964-3.553
		c1.083-1.779,1.585-3.878,1.467-5.986c-0.109-2.097-0.961-4.287-2.523-5.779c-1.579-1.474-3.399-2.192-5.265-2.484
		c-1.861-0.275-3.721-0.09-5.472,0.418c-1.756,0.509-3.41,1.351-4.89,2.472c-0.729,0.541-1.469,1.236-2.065,1.886
		c-0.607,0.665-1.178,1.346-1.718,2.058c-2.142,2.842-3.913,6.045-4.903,9.692c-0.483,1.814-0.743,3.753-0.636,5.724
		c0.094,1.948,0.622,3.982,1.439,5.669c1.517,3.307,3.864,6.485,7.134,8.329c3.24,1.881,7.039,2.248,10.461,1.643
		c0.909-0.15,1.804-0.367,2.676-0.632l-0.708,0.961c-2.42,3.397-4.302,7.162-5.809,11.069c-1.499,3.948-2.37,8.407-1.762,12.833
		c0.566,4.394,2.551,8.379,5.011,11.691c0.33,0.53,0.539,1.24,0.758,2.142l0.892,3.621l1.719-3.259l0.002-0.003
		c0.897-1.965,1.787-4.139,1.832-6.597c0.018-1.223-0.227-2.45-0.672-3.521c-0.444-1.08-1.051-2.026-1.713-2.874
		c-1.328-1.722-2.923-3.003-4.203-4.545c-0.326-0.39-0.63-0.797-0.9-1.226c0.196-2.409,0.804-4.815,1.678-7.124
		c1.422-3.68,3.198-7.219,5.433-10.361c1.611-2.266,3.447-4.31,5.515-6.052c5.771-3.571,10.594-8.501,14.6-14.019
		c1.01-1.401,1.965-2.839,2.862-4.324c0.446-0.735,0.89-1.502,1.303-2.25c0.444-0.786,0.842-1.64,1.181-2.48
		c0.685-1.696,1.163-3.437,1.517-5.186c0.345-1.75,0.624-3.507,0.752-5.272c0.288-3.521,0.243-7.048-0.113-10.529
		c-0.372-3.471-0.992-6.952-2.279-10.158c0.533,3.42,0.624,6.84,0.592,10.245C52.707,367.641,52.479,371.034,52.015,374.354z
		 M20.059,433.447c1.165,1.783,2.61,3.274,3.62,4.977c1.038,1.695,1.655,3.555,1.396,5.341c-0.108,0.848-0.373,1.686-0.726,2.512
		l-0.013-0.02l-0.037-0.051c-2.285-3.062-4.001-6.563-4.484-10.318c-0.144-1.022-0.184-2.053-0.155-3.087L20.059,433.447z"/>
	<path fill="#333333" d="M59.531,401.35c7.077,0.832,0.635-13.948-4.28-16.092C53.597,388.768,54.557,400.553,59.531,401.35z"/>
	<path fill="#333333" d="M45.481,369.313c2.18-1.429,3.637-4.806,3.214-7.078c-2.46,3.264-3.93,4.003-7.997,3.264
		c-2.979-0.58-9.785-1.877-8.764,4.534C37.305,369.722,41.306,372.275,45.481,369.313z"/>
	<path fill="#333333" d="M36.202,293.127c-4.963-2.017-19.088,4.099-13.383,8.652C26.967,304.826,35.174,296.903,36.202,293.127z"/>
	<path fill="#333333" d="M53.504,288.586c1.166,5.217,5.72,6.266,9.452,10.411c4.831-3.946-0.976-7.961-3.524-9.713
		c-3.447-2.426-4.052-4.035-3.775-8.221C53.899,282.416,52.82,285.958,53.504,288.586z"/>
	<path fill="#333333" d="M37.638,425.067c-0.351,0.107-0.507,0.16-0.881,0.301c-0.34,0.137-0.653,0.299-0.95,0.479
		c-1.184,0.737-2.072,1.721-2.801,2.781c-1.43,2.132-2.266,4.643-2.315,7.232c0.004,1.286,0.182,2.597,0.695,3.76
		c0.485,1.169,1.285,2.158,2.242,2.79c-1.286-1.999-1.482-4.27-1.049-6.349c0.411-2.087,1.348-4.061,2.577-5.65
		c0.619-0.786,1.319-1.484,2.051-1.91c0.178-0.107,0.359-0.196,0.534-0.264c0.145-0.053,0.511-0.18,0.689-0.229
		c0.453-0.131,0.937-0.243,1.413-0.31c1.913-0.29,3.86,0.029,5.655,0.874c3.61,1.71,6.506,5.188,8.605,9.005
		c1.731,3.175,2.936,6.721,3.666,10.356c0.229,3.19-0.384,6.483-1.423,9.575c-1.194,3.476-2.996,6.767-5.39,9.347
		c-2.368,2.577-5.463,4.361-8.658,4.224c-1.591-0.051-3.169-0.546-4.636-1.357c-0.713-0.395-1.491-0.919-2.083-1.396
		c-0.605-0.51-1.154-1.133-1.617-1.822c-1.876-2.758-2.526-6.57-1.831-9.947c0.35-1.688,1.048-3.268,2.089-4.484
		c0.501-0.583,1.081-1.074,1.715-1.474c0.941-0.298,1.943-0.26,2.79,0.11c0.944,0.382,1.559,1.174,2.042,2.176
		c0.925,2.021,1.188,4.492,1.304,6.897c0.02,0.627,0.079,1.422,0.312,2.181c0.224,0.772,0.694,1.623,1.395,2.185
		c0.696,0.578,1.47,0.84,2.166,0.99c0.702,0.152,1.363,0.191,1.998,0.209l0.003-0.001l2.843-0.021l-1.734-2.434
		c-0.3-0.418-0.404-0.918-0.336-1.701c0.068-0.772,0.308-1.673,0.522-2.678c0.105-0.501,0.21-1.039,0.268-1.623
		c0.03-0.274,0.044-0.614,0.041-0.94l-0.01-0.181l-0.017-0.255c-0.012-0.144-0.018-0.291-0.037-0.433
		c-0.134-1.152-0.471-2.289-0.993-3.315c-2.121-4.143-6.811-6.144-10.957-5.076c-2.033,0.472-3.99,1.647-5.415,3.326
		c-1.433,1.677-2.332,3.758-2.771,5.879c-0.848,4.25-0.104,8.805,2.311,12.406c0.607,0.892,1.322,1.714,2.149,2.415
		c0.862,0.699,1.644,1.21,2.551,1.717c1.771,0.98,3.783,1.628,5.849,1.689c2.071,0.088,4.139-0.455,5.959-1.385
		c1.828-0.938,3.424-2.249,4.807-3.729c2.334-2.527,4.091-5.514,5.385-8.704c-0.573,5.595-2.242,11.07-4.798,16.021
		c-2.022,3.958-4.591,7.674-7.473,10.944c-2.892,3.226-6.345,5.867-10.087,7.835c-3.746,1.953-7.831,3.198-11.936,3.443
		c-4.097,0.247-8.242-0.561-11.702-2.698c-3.475-2.103-6.117-5.549-7.641-9.582c-0.382-1.002-0.735-2.061-0.946-3.034
		c-0.205-0.976-0.289-1.992-0.255-3.016c0.067-2.043,0.599-4.106,1.477-5.987c1.75-3.757,4.908-6.859,8.591-7.954
		c0.918-0.272,1.864-0.416,2.81-0.432c1.04-0.01,1.986,0.058,2.945,0.249c1.888,0.37,3.595,1.259,4.627,2.683
		c1.049,1.396,1.391,3.368,0.956,5.138c-0.162,0.693-0.447,1.373-0.812,1.989c-0.323-1.155-1.06-2.179-2.135-2.785
		c-2.13-1.2-4.761-0.324-5.879,1.95c-1.121,2.275-0.311,5.092,1.819,6.291c0.603,0.342,1.248,0.499,1.887,0.518
		c1.2,0.154,2.403-0.125,3.381-0.634c2.492-1.319,4.138-3.713,4.853-6.418c0.72-2.763,0.216-5.894-1.466-8.206
		c-1.663-2.334-4.203-3.565-6.592-4.055c-1.192-0.261-2.449-0.352-3.601-0.354c-1.245,0.002-2.492,0.181-3.688,0.522
		c-4.839,1.389-8.68,5.222-10.83,9.82c-1.083,2.314-1.761,4.88-1.854,7.529c-0.047,1.323,0.061,2.665,0.336,3.976
		c0.286,1.319,0.68,2.478,1.114,3.644c1.748,4.666,4.95,8.899,9.14,11.432c4.17,2.579,9.023,3.486,13.657,3.214
		c1.899-0.113,3.777-0.419,5.616-0.878c-2.693,2.468-5.287,5.071-7.715,7.856c-3.045,3.485-5.897,7.204-8.29,11.33
		c-1.19,2.069-2.274,4.229-3.13,6.542c-0.431,1.163-0.799,2.332-1.082,3.603l-0.184,0.891c-0.06,0.376-0.111,0.658-0.152,0.995
		c-0.088,0.647-0.133,1.307-0.148,1.963c-0.061,2.634,0.521,5.348,1.781,7.68c1.242,2.343,3.134,4.223,5.237,5.519
		c0.536,0.322,1.052,0.61,1.637,0.877c0.301,0.147,0.545,0.245,0.8,0.354c0.31,0.126,0.585,0.23,0.89,0.331
		c1.188,0.397,2.455,0.604,3.724,0.591c2.551-0.021,5.058-1.044,6.996-2.74c1.925-1.696,3.426-4.019,3.889-6.806
		c0.214-1.38,0.115-2.905-0.467-4.279c-0.563-1.388-1.637-2.471-2.782-3.114c-0.608-0.332-1.115-0.588-1.872-0.753
		c-0.715-0.149-1.442-0.077-2.102,0.119c-1.317,0.4-2.378,1.279-3.108,2.364c-0.732,1.071-1.192,2.438-0.975,3.79
		c0.1,0.674,0.416,1.292,0.829,1.742c0.418,0.462,0.943,0.748,1.458,0.941c-0.901-0.695-1.471-1.745-1.385-2.758
		c0.058-1.005,0.591-1.93,1.266-2.629c0.683-0.688,1.538-1.183,2.362-1.289c0.841-0.119,1.485,0.157,2.294,0.713
		c1.495,1.051,2.082,2.754,1.694,4.615c-0.347,1.845-1.492,3.624-2.966,4.843c-1.479,1.23-3.31,1.915-5.145,1.884
		c-0.919-0.011-1.841-0.181-2.733-0.501c-0.219-0.081-0.454-0.173-0.653-0.265c-0.255-0.113-0.519-0.227-0.713-0.334
		c-0.418-0.201-0.869-0.465-1.284-0.724c-1.67-1.063-3.067-2.513-3.977-4.262c-0.911-1.745-1.333-3.771-1.269-5.814
		c0.194-4.123,2.039-8.3,4.234-12.117c2.244-3.827,4.938-7.415,7.844-10.796c4.725-5.459,9.975-10.469,15.611-14.863
		c3.066-1.943,5.877-4.352,8.329-7.119c3.103-3.586,5.755-7.512,7.908-11.809c2.146-4.289,3.719-8.928,4.549-13.732
		c0.831-4.805,0.913-9.767,0.182-14.596c-0.741-4.824-2.214-9.521-4.565-13.774c-1.178-2.112-2.569-4.113-4.222-5.886
		c-1.649-1.768-3.583-3.323-5.817-4.348c-2.221-1.035-4.778-1.444-7.208-1.053C38.829,424.749,38.244,424.881,37.638,425.067z
		 M39.901,449.476c2.474,0.044,4.956,1.467,6.088,3.747c0.348,0.69,0.575,1.447,0.667,2.235c0.019,0.094,0.02,0.195,0.029,0.296
		l0.009,0.114l0.007,0.183c-0.001,0.161-0.005,0.312-0.026,0.521c-0.037,0.388-0.116,0.812-0.214,1.26
		c-0.186,0.899-0.468,1.887-0.58,3.064c-0.035,0.4-0.029,0.829,0.011,1.27c-0.231-0.06-0.438-0.135-0.587-0.243
		c-0.506-0.306-0.825-1.148-0.93-2.345c-0.319-2.563-0.743-5.195-2.058-7.623c-0.346-0.597-0.75-1.177-1.271-1.67
		C40.722,449.966,40.311,449.688,39.901,449.476z"/>
	<path fill="#333333" d="M71.333,475c3.604-2.313-2.267-11.88-7.249-15.411C62.918,465.856,66.233,478.063,71.333,475z"/>
	<path fill="#333333" d="M42.252,514.36c3.776,2.621,8.427-2.147,6.143-6.396c-1.489-3.058-6.69-2.785-4.951-7.719
		c0.097-0.195,1.121-1.343,1.217-1.535C40.037,502.021,36.057,509.634,42.252,514.36z"/>
	<path fill="#333333" d="M37.921,480.438c-1.223,0.953-1.427,2.806-0.612,4.125c0.207,0.329,0.473,0.625,0.803,0.865
		c2.711,1.963,6.65-0.436,8.659-2.558c1.266-1.337,2.43-3.646,1.565-6.138C46.019,481.891,41.275,477.813,37.921,480.438z"/>
</g>
</svg>
