<?xml version="1.0" encoding="utf-8"?>
<!-- Generator: Adobe Illustrator 16.0.2, SVG Export Plug-In . SVG Version: 6.00 Build 0)  -->
<!DOCTYPE svg PUBLIC "-//W3C//DTD SVG 1.1//EN" "http://www.w3.org/Graphics/SVG/1.1/DTD/svg11.dtd">
<svg version="1.1" id="Слой_1" xmlns="http://www.w3.org/2000/svg" xmlns:xlink="http://www.w3.org/1999/xlink" x="0px" y="0px"
	 width="47.946px" height="90.71px" viewBox="0 0 47.946 90.71" enable-background="new 0 0 47.946 90.71" xml:space="preserve">
<path fill="#333333" d="M39.19,1.502c-0.303,1.057-0.846,1.909-1.527,2.82c-0.646,0.86-1.502,1.699-1.881,2.582
	c-0.725,1.699-0.373,3.769,0,5.521c-1.557-1.178-3.594-2.248-5.637-2.35c-1.625-0.081-6.93,0.918-6.93,6.342
	c0,3.916,4.803,4.895,4.109,10.688c1.551-1.385,1.645-4.796,0.47-6.577c4.14-1.113,3.568-4.496,2.938-4.814
	c-0.451,0.551-0.823,0.855-1.411,0.939c-1.237,0.174-2.437-0.797-2.467-2.115c-0.054-2.381,2.614-3.186,4.464-3.053
	c2.962,0.209,6.439,3.332,7.166,6.577c0.393,1.759,0.295,3.591-0.236,5.286c-2.759-0.283-4.584,1.055-5.754,2.817
	c-1.549,2.329-1.828,5.677-1.164,8.829c-2.142,2.387-3.986,4.18-6.015,5.873c-1.948-2.184-3.193-6.475-0.457-7.301
	c1.078-0.326,1.781,0.164,2.114,0.588c1.504-2.572-0.975-5.103-3.57-4.595c1.248-4.048,0.22-8.188-3.461-9.319
	c1.406,1.865,0.254,3.992-0.275,4.771c-2.417,3.549-4.394,3.644-5.995,6.638c-0.536-1.176-2.387-6.24-7.254-4.19
	c2.463,0.304,3.503,0.922,4.287,2.906c0.344,0.875,0.704,2.127,0.881,3.084c0.465,2.482,0.986,4.654,2.82,7.438
	c-1.057-0.461-2.534-1.377-4.464-1.684c-2.353-0.375-5.694,0.643-5.694,2.381c0,0.697,0.716,1.184,0.674,1.613
	c0,0.719-2.566,0.396-4.922,2.156c2.355,1.759,4.922,1.437,4.922,2.156c0.042,0.43-0.674,0.913-0.674,1.611
	c0,1.737,3.342,2.758,5.694,2.382c1.93-0.308,3.407-1.224,4.464-1.684c-1.834,2.783-2.355,4.955-2.82,7.438
	c-0.177,0.956-0.537,2.211-0.881,3.085c-0.784,1.982-1.824,2.602-4.287,2.906c4.867,2.048,6.718-3.016,7.254-4.191
	c1.602,2.994,3.578,3.09,5.995,6.637c0.529,0.779,1.682,2.906,0.275,4.773c3.681-1.133,4.709-5.272,3.461-9.321
	c2.596,0.509,5.074-2.021,3.57-4.593c-0.333,0.424-1.036,0.913-2.114,0.589c-2.736-0.827-1.491-5.121,0.457-7.302
	c2.028,1.692,3.873,3.487,6.015,5.872c-0.664,3.152-0.385,6.5,1.164,8.829c1.17,1.764,2.995,3.101,5.754,2.818
	c0.531,1.695,0.629,3.526,0.236,5.285c-0.727,3.245-4.204,6.367-7.166,6.577c-1.85,0.133-4.518-0.672-4.464-3.053
	c0.03-1.317,1.229-2.289,2.467-2.115c0.588,0.083,0.96,0.389,1.411,0.94c0.63-0.319,1.201-3.703-2.938-4.815
	c1.175-1.782,1.081-5.192-0.47-6.579c0.693,5.795-4.109,6.775-4.109,10.689c0,5.424,5.305,6.424,6.93,6.344
	c2.043-0.103,4.08-1.175,5.637-2.351c-0.373,1.753-0.725,3.822,0,5.521c0.379,0.883,1.234,1.723,1.881,2.584
	c0.682,0.91,1.225,1.763,1.527,2.819c0.238,0.86-0.238,1.502,0.26,1.502c0.131,0,0.181-0.086,0.221-0.146
	c0.969-1.504-0.935-4.498-1.186-5.231c-1.475-4.311,2.012-5.564,1.291-7.518c-0.27-0.73-1.757-0.924-1.527-1.291
	c0.168-0.367,1.663-0.346,1.646-1.527c-0.012-0.715-1.141-0.832-0.943-1.53c0.557-1.948,0.658-3.864,0.006-6.23
	c1.672-0.571,2.813-1.548,3.638-2.811c0.808,0.752,2.444,1.196,3.173,0.234c0.236-0.554-1.586-0.324-1.723-1.625
	c-0.322-2.247,1.713-2.937,1.369-5.187c-0.143-0.939-1.675-2.337-3.326-1.634c-1.699-2.951-4.437-5.215-4.437-5.215
	c1.591-0.275,2.774,0.82,3.063,0.741c0.75-0.409,0.309-1.506,0.729-1.796c0.947-0.53,2.205,0.312,2.049-0.308
	c-0.702-2.182-2.307-1.039-2.307-2.007c0-0.521,1.5-1.067,2.34-1.356c1.292-0.447,2.691-0.746,4.42-0.918
	c-1.729-0.172-3.128-0.472-4.42-0.918c-0.84-0.29-2.34-0.835-2.34-1.354c0-0.97,1.604,0.172,2.307-2.011
	c0.156-0.618-1.102,0.224-2.049-0.306c-0.42-0.291,0.021-1.387-0.729-1.795c-0.289-0.08-1.473,1.016-3.063,0.74
	c0,0,2.737-2.264,4.437-5.215c1.651,0.703,3.184-0.697,3.326-1.634c0.344-2.252-1.691-2.939-1.369-5.187
	c0.137-1.301,1.959-1.07,1.723-1.627c-0.729-0.959-2.365-0.516-3.173,0.236c-0.825-1.262-1.966-2.24-3.638-2.811
	c0.652-2.365,0.551-4.281-0.006-6.23c-0.197-0.697,0.932-0.814,0.943-1.529c0.017-1.182-1.479-1.162-1.646-1.527
	c-0.229-0.369,1.258-0.561,1.527-1.291c0.721-1.953-2.766-3.207-1.291-7.518c0.251-0.734,2.154-3.729,1.186-5.232
	C39.631,0.088,39.581,0,39.45,0C38.952,0,39.429,0.641,39.19,1.502z M15.462,36.622c-1.179-8.09,5.611-8.61,5.887-14.85
	c1.194,1.069,1.56,2.604,1.514,3.927c-0.085,2.443-1.774,4.764-1.996,7.398c-0.318,3.756,1.482,6.455,3.48,8.557
	c-1.315,1.1-2.63,2.295-4.297,3.334C17.824,42.95,15.976,40.141,15.462,36.622z M24.927,42.143c1.287,1.255,2.447,2.204,3.619,3.213
	c-1.172,1.008-2.332,1.957-3.619,3.212c-1.407-1.205-2.936-2.412-4.1-3.212C21.991,44.557,23.52,43.348,24.927,42.143z
	 M7.476,46.453c-0.217-0.336-0.31-0.72-0.307-1.098c-0.003-0.379,0.09-0.764,0.307-1.1c0.899-1.391,3.828-1.625,5.639-1.41
	c0.915,0.111,4.649,1.079,5.803,2.51c-1.153,1.429-4.888,2.398-5.803,2.509C11.304,48.08,8.375,47.846,7.476,46.453z M20.866,57.612
	c0.222,2.634,1.911,4.955,1.996,7.399c0.046,1.323-0.319,2.855-1.514,3.926c-0.275-6.239-7.065-6.76-5.887-14.85
	c0.514-3.519,2.362-6.329,4.588-8.366c1.667,1.04,2.981,2.232,4.297,3.335C22.349,51.156,20.548,53.858,20.866,57.612z
	 M33.585,58.05c2.049,2.355,3.376,4.603,4.252,7.799C33.003,67.653,29.914,60.313,33.585,58.05z M41.538,61.254
	c-0.262,1.882-1.557,3.597-3.09,4.365c-0.552-1.881-1.529-4.909-4.189-7.784c0.61-0.215,1.582,0.207,1.767,0.189
	c1.298,0.025,1.451-3.506-0.767-4.154c-0.545-0.158-2.033,0.08-1.75-0.471c0.267-0.549,0.565-0.856,0.982-1.19
	c0.598-0.479,1.598-1.008,2.348-1.057C39.3,53.25,42.122,57.048,41.538,61.254z M35.084,49.883c-1.866,1.713-2.589,2.57-3.507,4.955
	c0,0-4.355-4.496-5.772-5.608c0,0,1.325-1.671,3.321-3.469C31.229,47.343,33.707,49.026,35.084,49.883z M44.198,45.355
	c-2.568,0.704-4.711,1.375-8.532,4.036c-2.021-1.313-4.069-2.606-5.904-4.035c1.835-1.431,3.884-2.723,5.904-4.036
	C39.487,43.979,41.63,44.652,44.198,45.355z M35.084,40.828c-1.377,0.855-3.854,2.539-5.958,4.121
	c-1.996-1.797-3.321-3.469-3.321-3.469c1.417-1.111,5.772-5.608,5.772-5.608C32.495,38.258,33.218,39.115,35.084,40.828z
	 M41.538,29.456c0.584,4.206-2.238,8.004-4.699,10.103c-0.75-0.05-1.75-0.578-2.348-1.058c-0.417-0.334-0.716-0.64-0.982-1.19
	c-0.283-0.551,1.205-0.311,1.75-0.471c2.218-0.648,2.064-4.18,0.767-4.154c-0.185-0.018-1.156,0.403-1.767,0.189
	c2.66-2.875,3.638-5.903,4.189-7.784C39.981,25.859,41.276,27.576,41.538,29.456z M37.837,24.861
	c-0.876,3.195-2.203,5.443-4.252,7.801C29.914,30.396,33.003,23.057,37.837,24.861z"/>
</svg>
